# xmcd CD database file
#
# Track frame offsets:
#	150
#	14133
#	27420
#	42097
#	57732
#	71254
#	86814
#	97878
#	109340
#	122945
#	137807
#	152305
#	164816
#	179201
#
# Disc length: 2563 seconds
#
# Revision: 0
# Processed by: cddbd v1.5.2PL0 Copyright (c) Steve Scherf et al.
# Submitted via: CDex 2.23
#
DISCID=cd0a010e
DTITLE=Ella Fitzgerald - Ella Fitzgerald - Disc 2
DYEAR=1998
DGENRE=Jazz
TTITLE0=Wacky Dust
TTITLE1=Cow Cow Boogie
TTITLE2=The Dipsy Doodle
TTITLE3=Benny's Coming Home On Saturday
TTITLE4=We Can't Go On This Way
TTITLE5=I'm Confessin'
TTITLE6=When I Get Low I Get High
TTITLE7=Oh Yes, Take Another Guess
TTITLE8=Under The Spell Of The Blues
TTITLE9=An Her Tears Flowed Like Wine
TTITLE10=If You Should Ever Leave
TTITLE11=I'm Beginning To See The Light
TTITLE12=Rock It For Me
TTITLE13=Gotta Pebble In My Shoe
EXTD=YEAR: 1998
EXTT0=
EXTT1=
EXTT2=
EXTT3=
EXTT4=
EXTT5=
EXTT6=
EXTT7=
EXTT8=
EXTT9=
EXTT10=
EXTT11=
EXTT12=
EXTT13=
PLAYORDER=
